<svg width="100" height="100" viewBox="0 0 100 100" fill="none" xmlns="http://www.w3.org/2000/svg">
<circle cx="50" cy="50" r="50" fill="#2B0A0A"/>
<path d="M36.2129 66.5077V43.707" stroke="white" stroke-linecap="round" stroke-linejoin="round"/>
<path d="M63.7363 44.084V66.5082" stroke="white" stroke-linecap="round" stroke-linejoin="round"/>
<path d="M65.2833 45.0214L49.8796 33.3701L34.4735 45.0214L32.6641 42.888L49.8796 29.8672L67.0951 42.888L65.2833 45.0214Z" stroke="white" stroke-linecap="round" stroke-linejoin="round"/>
<path d="M35.2259 66.6045H64.7183C65.6253 66.6045 66.3622 67.3002 66.3622 68.1567V68.8458C66.3622 69.7023 65.6253 70.398 64.7183 70.398H35.2259C34.3189 70.398 33.582 69.7023 33.582 68.8458V68.1567C33.582 67.3002 34.3189 66.6045 35.2259 66.6045Z" stroke="white" stroke-linecap="round" stroke-linejoin="round"/>
<path d="M64.7148 70.5957V73.3192L69.6722 78" stroke="white" stroke-linecap="round" stroke-linejoin="round"/>
<path d="M35.9574 70.5957V73.3192L31 78" stroke="white" stroke-linecap="round" stroke-linejoin="round"/>
<path d="M40.2305 66.5074V51.1528C40.2305 46.1198 44.5513 42.04 49.8817 42.04C55.2121 42.04 59.5329 46.1198 59.5329 51.1528V66.5074" stroke="white" stroke-linecap="round" stroke-linejoin="round"/>
<path d="M49.8809 29.8666V22" stroke="white" stroke-linecap="round" stroke-linejoin="round"/>
<path d="M46.9863 24.4854H52.7715" stroke="white" stroke-linecap="round" stroke-linejoin="round"/>
<path d="M49.9729 49.6533C50.2503 49.6533 50.5208 49.6731 50.7843 49.7106C53.1884 50.0584 54.8626 52.1522 54.6294 54.4376L54.5338 55.3645C54.4872 55.8291 54.5175 56.298 54.6271 56.7516C54.8369 57.6256 55.3289 58.4182 56.0331 59.0193L56.5531 59.4641C56.7 59.5896 56.784 59.7679 56.784 59.9528C56.784 60.3183 56.4715 60.6133 56.0844 60.6133H43.8636C43.4765 60.6133 43.1641 60.3183 43.1641 59.9528C43.1641 59.7657 43.248 59.5896 43.3949 59.4641L43.9149 59.0193C44.6191 58.4182 45.1088 57.6256 45.321 56.7516C45.4306 56.2958 45.4632 55.8291 45.4142 55.3645L45.3186 54.4376C45.0854 52.1522 46.7597 50.0584 49.1637 49.7106C49.4272 49.6731 49.6977 49.6533 49.9752 49.6533H49.9729Z" stroke="white" stroke-linecap="round" stroke-linejoin="round"/>
<path d="M51.8792 60.6572C51.8792 61.6524 51.0258 62.4582 49.9718 62.4582C48.9179 62.4582 48.0645 61.6524 48.0645 60.6572" stroke="white" stroke-linecap="round" stroke-linejoin="round"/>
<path d="M48.7461 49.803V48.4159C48.7461 47.7796 49.2987 47.2578 49.9726 47.2578C50.3107 47.2578 50.6162 47.3877 50.84 47.5991C51.0615 47.8082 51.2015 48.0989 51.2015 48.4181V49.8052" stroke="white" stroke-linecap="round" stroke-linejoin="round"/>
<path d="M59.3014 49.6533H51.2031" stroke="white" stroke-linecap="round" stroke-linejoin="round"/>
<path d="M48.7487 49.6533H40.4336" stroke="white" stroke-linecap="round" stroke-linejoin="round"/>
</svg>
