<svg width="100" height="100" viewBox="0 0 100 100" fill="none" xmlns="http://www.w3.org/2000/svg">
<circle cx="50" cy="50" r="50" fill="#2B0A0A"/>
<path d="M39.1275 52.8588C39.0604 52.2434 38.8663 51.6455 38.582 51.0781" stroke="white" stroke-linecap="round" stroke-linejoin="round"/>
<path d="M30.8711 43.957C31.2085 44.3215 31.5691 44.6663 31.9481 44.9936C32.1769 45.19 32.4103 45.3798 32.6484 45.5631" stroke="white" stroke-linecap="round" stroke-linejoin="round"/>
<path d="M27.2947 36.3467C27.2485 35.9299 27.2323 35.5109 27.2346 35.0898C27.2392 34.6359 27.2739 34.1841 27.3363 33.7324" stroke="white" stroke-linecap="round" stroke-linejoin="round"/>
<path d="M30.9668 26.84C31.4637 26.3839 32.0068 25.9758 32.5892 25.6179C32.9243 25.4128 33.2687 25.2251 33.6223 25.0527" stroke="white" stroke-linecap="round" stroke-linejoin="round"/>
<path d="M42.1621 23.3762C43.1259 23.3484 44.0873 23.3507 45.0372 23.3554" stroke="white" stroke-linecap="round" stroke-linejoin="round"/>
<path d="M53.4102 23.4199C54.4363 23.4269 55.4648 23.4384 56.4909 23.4453C56.5626 23.4453 56.6342 23.4453 56.7082 23.4453" stroke="white" stroke-linecap="round" stroke-linejoin="round"/>
<path d="M65.8105 24.8623C66.8043 25.3337 67.7103 25.9643 68.4915 26.7106" stroke="white" stroke-linecap="round" stroke-linejoin="round"/>
<path d="M70.8887 37.2805C71.3116 36.2614 71.5612 35.179 71.6074 34.0879" stroke="white" stroke-linecap="round" stroke-linejoin="round"/>
<path d="M65.0183 42.9463C64.0153 43.3391 62.966 43.601 61.8867 43.7864" stroke="white" stroke-linecap="round" stroke-linejoin="round"/>
<path d="M52.7815 44.6416C51.5566 44.8205 50.3525 45.0868 49.2246 45.497" stroke="white" stroke-linecap="round" stroke-linejoin="round"/>
<path d="M43.2948 51.1953C42.9736 51.9591 42.7217 52.7534 42.5137 53.5608" stroke="white" stroke-linecap="round" stroke-linejoin="round"/>
<path d="M44.623 48.8099C45.0229 48.2709 45.4782 47.7712 46.0005 47.3216C46.2316 47.1252 46.4673 46.9419 46.7146 46.7695" stroke="white" stroke-linecap="round" stroke-linejoin="round"/>
<path d="M55.6172 44.3483C55.7351 44.3395 55.8529 44.3308 55.9708 44.3242C56.9946 44.2586 58.0323 44.2061 59.0677 44.123" stroke="white" stroke-linecap="round" stroke-linejoin="round"/>
<path d="M69.5038 39.6455C68.9329 40.3809 68.2604 41.0421 67.5 41.6008" stroke="white" stroke-linecap="round" stroke-linejoin="round"/>
<path d="M71.3073 31.4121C71.0716 30.5218 70.7018 29.662 70.2188 28.8633" stroke="white" stroke-linecap="round" stroke-linejoin="round"/>
<path d="M63.1121 23.9651C61.9588 23.7091 60.7663 23.5822 59.5645 23.5166" stroke="white" stroke-linecap="round" stroke-linejoin="round"/>
<path d="M50.5529 23.3997C49.67 23.3928 48.7848 23.3858 47.9043 23.3789" stroke="white" stroke-linecap="round" stroke-linejoin="round"/>
<path d="M39.3197 23.5547C38.2866 23.6641 37.2674 23.8327 36.2852 24.0888" stroke="white" stroke-linecap="round" stroke-linejoin="round"/>
<path d="M29.1783 28.9131C28.7161 29.6027 28.3301 30.3403 28.0273 31.1084" stroke="white" stroke-linecap="round" stroke-linejoin="round"/>
<path d="M29.1941 41.7841C28.6418 40.8981 28.1911 39.9532 27.8652 38.9756" stroke="white" stroke-linecap="round" stroke-linejoin="round"/>
<path d="M34.9082 47.2178C35.5299 47.6717 36.1354 48.1387 36.697 48.6537C36.7733 48.7235 36.8519 48.7977 36.9258 48.8719" stroke="white" stroke-linecap="round" stroke-linejoin="round"/>
<path d="M40.2506 58.6497C42.0006 58.6497 43.4192 57.3102 43.4192 55.6578C43.4192 54.0055 42.0006 52.666 40.2506 52.666C38.5007 52.666 37.082 54.0055 37.082 55.6578C37.082 57.3102 38.5007 58.6497 40.2506 58.6497Z" stroke="white" stroke-linecap="round" stroke-linejoin="round"/>
<path d="M39.2206 49.9563C39.2206 50.7026 38.5804 51.3071 37.79 51.3071C36.9996 51.3071 36.3594 50.7026 36.3594 49.9563C36.3594 49.2099 36.9996 48.6055 37.79 48.6055C38.5804 48.6055 39.2206 49.2099 39.2206 49.9563Z" stroke="white" stroke-linecap="round" stroke-linejoin="round"/>
<path d="M35.2264 46.3703C35.2264 47.1166 34.5863 47.7211 33.7958 47.7211C33.0054 47.7211 32.3652 47.1166 32.3652 46.3703C32.3652 45.624 33.0054 45.0195 33.7958 45.0195C34.5863 45.0195 35.2264 45.624 35.2264 46.3703Z" stroke="white" stroke-linecap="round" stroke-linejoin="round"/>
<path d="M31.3534 42.9445C31.3534 43.6909 30.7132 44.2953 29.9228 44.2953C29.1324 44.2953 28.4922 43.6909 28.4922 42.9445C28.4922 42.1982 29.1324 41.5938 29.9228 41.5938C30.7132 41.5938 31.3534 42.1982 31.3534 42.9445Z" stroke="white" stroke-linecap="round" stroke-linejoin="round"/>
<path d="M28.8612 37.6887C28.8612 38.435 28.221 39.0395 27.4306 39.0395C26.6402 39.0395 26 38.435 26 37.6887C26 36.9424 26.6402 36.3379 27.4306 36.3379C28.221 36.3379 28.8612 36.9424 28.8612 37.6887Z" stroke="white" stroke-linecap="round" stroke-linejoin="round"/>
<path d="M29.1561 32.4328C29.1561 33.1791 28.5159 33.7836 27.7255 33.7836C26.9351 33.7836 26.2949 33.1791 26.2949 32.4328C26.2949 31.6865 26.9351 31.082 27.7255 31.082C28.5159 31.082 29.1561 31.6865 29.1561 32.4328Z" stroke="white" stroke-linecap="round" stroke-linejoin="round"/>
<path d="M29.9228 29.1117C30.7129 29.1117 31.3534 28.507 31.3534 27.7609C31.3534 27.0149 30.7129 26.4102 29.9228 26.4102C29.1327 26.4102 28.4922 27.0149 28.4922 27.7609C28.4922 28.507 29.1327 29.1117 29.9228 29.1117Z" stroke="white" stroke-linecap="round" stroke-linejoin="round"/>
<path d="M36.3534 24.4904C36.3534 25.2368 35.7132 25.8412 34.9228 25.8412C34.1324 25.8412 33.4922 25.2368 33.4922 24.4904C33.4922 23.7441 34.1324 23.1396 34.9228 23.1396C35.7132 23.1396 36.3534 23.7441 36.3534 24.4904Z" stroke="white" stroke-linecap="round" stroke-linejoin="round"/>
<path d="M42.1678 23.3508C42.1678 24.0971 41.5277 24.7016 40.7372 24.7016C39.9468 24.7016 39.3066 24.0971 39.3066 23.3508C39.3066 22.6045 39.9468 22 40.7372 22C41.5277 22 42.1678 22.6045 42.1678 23.3508Z" stroke="white" stroke-linecap="round" stroke-linejoin="round"/>
<path d="M47.9022 23.3508C47.9022 24.0971 47.262 24.7016 46.4716 24.7016C45.6812 24.7016 45.041 24.0971 45.041 23.3508C45.041 22.6045 45.6812 22 46.4716 22C47.262 22 47.9022 22.6045 47.9022 23.3508Z" stroke="white" stroke-linecap="round" stroke-linejoin="round"/>
<path d="M53.412 23.3508C53.412 24.0971 52.7718 24.7016 51.9814 24.7016C51.191 24.7016 50.5508 24.0971 50.5508 23.3508C50.5508 22.6045 51.191 22 51.9814 22C52.7718 22 53.412 22.6045 53.412 23.3508Z" stroke="white" stroke-linecap="round" stroke-linejoin="round"/>
<path d="M58.1337 24.8774C58.9238 24.8774 59.5643 24.2726 59.5643 23.5266C59.5643 22.7806 58.9238 22.1758 58.1337 22.1758C57.3436 22.1758 56.7031 22.7806 56.7031 23.5266C56.7031 24.2726 57.3436 24.8774 58.1337 24.8774Z" stroke="white" stroke-linecap="round" stroke-linejoin="round"/>
<path d="M65.8632 24.4904C65.8632 25.2368 65.223 25.8412 64.4326 25.8412C63.6421 25.8412 63.002 25.2368 63.002 24.4904C63.002 23.7441 63.6421 23.1396 64.4326 23.1396C65.223 23.1396 65.8632 23.7441 65.8632 24.4904Z" stroke="white" stroke-linecap="round" stroke-linejoin="round"/>
<path d="M70.8037 27.5468C70.9286 28.2844 70.3993 28.9784 69.6181 29.0962C68.837 29.2141 68.102 28.7143 67.9772 27.9767C67.8524 27.2391 68.3817 26.5452 69.1628 26.4274C69.944 26.3095 70.6789 26.8093 70.8037 27.5468Z" stroke="white" stroke-linecap="round" stroke-linejoin="round"/>
<path d="M73.001 32.5195C73.1258 33.2571 72.5966 33.951 71.8154 34.0689C71.0342 34.1867 70.2993 33.687 70.1745 32.9494C70.0497 32.2118 70.5789 31.5179 71.3601 31.4C72.1413 31.2822 72.8762 31.7819 73.001 32.5195Z" stroke="white" stroke-linecap="round" stroke-linejoin="round"/>
<path d="M71.5948 38.2422C71.7196 38.9797 71.1903 39.6737 70.4091 39.7915C69.628 39.9094 68.893 39.4096 68.7682 38.6721C68.6434 37.9345 69.1727 37.2405 69.9538 37.1227C70.735 37.0048 71.47 37.5046 71.5948 38.2422Z" stroke="white" stroke-linecap="round" stroke-linejoin="round"/>
<path d="M67.6514 42.0215C67.7762 42.759 67.247 43.453 66.4658 43.5708C65.6846 43.6887 64.9497 43.1889 64.8249 42.4513C64.7001 41.7138 65.2293 41.0198 66.0105 40.902C66.7917 40.7841 67.5266 41.2839 67.6514 42.0215Z" stroke="white" stroke-linecap="round" stroke-linejoin="round"/>
<path d="M61.9131 43.8886C62.0379 44.6262 61.5087 45.3202 60.7275 45.438C59.9463 45.5559 59.2114 45.0561 59.0866 44.3185C58.9618 43.5809 59.491 42.887 60.2722 42.7692C61.0534 42.6513 61.7883 43.1511 61.9131 43.8886Z" stroke="white" stroke-linecap="round" stroke-linejoin="round"/>
<path d="M55.626 44.3779C55.7508 45.1155 55.2216 45.8094 54.4404 45.9273C53.6592 46.0451 52.9243 45.5454 52.7995 44.8078C52.6747 44.0702 53.2039 43.3763 53.9851 43.2584C54.7663 43.1406 55.5012 43.6403 55.626 44.3779Z" stroke="white" stroke-linecap="round" stroke-linejoin="round"/>
<path d="M49.3174 45.8037C49.4422 46.5413 48.913 47.2352 48.1318 47.3531C47.3506 47.4709 46.6157 46.9712 46.4909 46.2336C46.3661 45.496 46.8953 44.802 47.6765 44.6842C48.4577 44.5664 49.1926 45.0661 49.3174 45.8037Z" stroke="white" stroke-linecap="round" stroke-linejoin="round"/>
<path d="M45.2764 49.7412C45.4012 50.4788 44.872 51.1727 44.0908 51.2906C43.3096 51.4084 42.5747 50.9087 42.4499 50.1711C42.3251 49.4335 42.8543 48.7395 43.6355 48.6217C44.4167 48.5039 45.1516 49.0036 45.2764 49.7412Z" stroke="white" stroke-linecap="round" stroke-linejoin="round"/>
<path d="M41.667 61.6113C41.7918 62.3489 41.2626 63.0428 40.4814 63.1607C39.7002 63.2785 38.9653 62.7788 38.8405 62.0412C38.7157 61.3036 39.2449 60.6097 40.0261 60.4918C40.8073 60.374 41.5422 60.8737 41.667 61.6113Z" stroke="white" stroke-linecap="round" stroke-linejoin="round"/>
<path d="M40.25 65.0013V64.9904V63.1748" stroke="white" stroke-linecap="round" stroke-linejoin="round"/>
<path d="M40.25 60.4747V58.6504" stroke="white" stroke-linecap="round" stroke-linejoin="round"/>
<path d="M45.6754 68.042H42.2272V64.9912H38.2728V68.042H34.8223V71.7735H38.2728V78.1762H42.2272V71.7735H45.6754V68.042Z" stroke="white" stroke-linecap="round" stroke-linejoin="round"/>
</svg>
