<svg width="100" height="100" viewBox="0 0 100 100" fill="none" xmlns="http://www.w3.org/2000/svg">
<circle cx="50" cy="50" r="50" fill="#2B0A0A"/>
<path d="M38.5243 73.2501C33.1582 71.418 28.4525 68.1628 24.9831 63.8841C24.8065 63.6693 24.6347 63.4523 24.4678 63.233C23.5436 62.0246 22.7186 60.7384 22 59.3838" stroke="white" stroke-linecap="round" stroke-linejoin="round"/>
<path d="M61.9297 73.2501H61.9321C64.5886 72.3409 67.0854 71.0845 69.3475 69.5288C73.1483 66.9155 76.2935 63.4569 78.4565 59.3838" stroke="white" stroke-linecap="round" stroke-linejoin="round"/>
<path d="M38.518 73.25H61.9328V77.282C61.9328 77.6772 61.5941 77.9993 61.1731 77.9993H39.2753C38.8568 77.9993 38.5156 77.6795 38.5156 77.282V73.25H38.518Z" stroke="white" stroke-linecap="round" stroke-linejoin="round"/>
<path d="M72.7154 59.3841C72.8122 59.2288 72.9041 59.0712 72.996 58.9067C73.1944 58.5526 73.3856 58.178 73.5622 57.7851C74.0775 56.6429 74.4549 55.4915 74.6969 54.3676C74.767 54.0501 74.8251 53.7348 74.8711 53.4241C74.9848 52.6886 75.0356 51.9735 75.0356 51.2836C75.0332 50.877 75.0114 50.4795 74.9703 50.0935C74.9122 49.5178 74.8082 48.9673 74.663 48.4464C74.1452 46.5778 73.0856 45.1295 71.5372 44.4327C69.9912 43.7383 68.1331 43.8753 66.2678 44.6726C65.75 44.8919 65.2347 45.1637 64.7218 45.4835C64.3782 45.696 64.0395 45.9313 63.7032 46.1849C63.1347 46.6189 62.5782 47.11 62.0435 47.6537C61.8475 47.857 61.654 48.0649 61.4629 48.2797C60.6572 49.1889 59.9193 50.2237 59.283 51.3613C59.0701 51.7405 58.8814 52.1197 58.712 52.4898C58.6612 52.604 58.6104 52.7183 58.5645 52.8302" stroke="white" stroke-linecap="round" stroke-linejoin="round"/>
<path d="M64.7227 45.4834C65.9856 46.452 67.6622 47.4411 69.5832 48.3046C71.5066 49.1704 73.3792 49.7758 74.9711 50.0933" stroke="white" stroke-linecap="round" stroke-linejoin="round"/>
<path d="M74.8725 53.4244C73.0337 53.2576 70.5684 52.5654 68.0159 51.4187C65.4611 50.2696 63.3393 48.899 62.0449 47.6562" stroke="white" stroke-linecap="round" stroke-linejoin="round"/>
<path d="M58.6387 54.0596C60.2621 55.2954 62.4081 56.5587 64.8662 57.6644C66.4508 58.3771 68.0089 58.955 69.463 59.3845" stroke="white" stroke-linecap="round" stroke-linejoin="round"/>
<path d="M68.2966 55.3641C67.8442 56.2618 66.7047 56.6433 65.7538 56.2161C64.803 55.789 64.399 54.713 64.8514 53.8152C65.3038 52.9175 66.4434 52.536 67.3942 52.9631C68.345 53.3903 68.749 54.4663 68.2966 55.3641Z" stroke="white" stroke-linecap="round" stroke-linejoin="round"/>
<path d="M72.4792 56.4946C72.1599 57.1297 71.3542 57.3993 70.6816 57.0977C70.009 56.7962 69.7235 56.0355 70.0429 55.4004C70.3623 54.7653 71.1679 54.4958 71.8405 54.7973C72.5131 55.0989 72.7986 55.8596 72.4792 56.4946Z" stroke="white" stroke-linecap="round" stroke-linejoin="round"/>
<path d="M63.8308 52.3413C63.5114 52.9764 62.7058 53.2459 62.0332 52.9444C61.3606 52.6429 61.0751 51.8821 61.3945 51.2471C61.7138 50.612 62.5195 50.3425 63.1921 50.644C63.8646 50.9455 64.1501 51.7062 63.8308 52.3413Z" stroke="white" stroke-linecap="round" stroke-linejoin="round"/>
<path d="M24.9199 59.3844C24.9756 58.6328 25.099 57.8561 25.2804 57.0749C26.328 52.538 29.3546 47.9121 32.9256 47.9121C34.4015 47.9121 35.7853 48.7025 36.9708 49.9498C37.8031 50.8202 38.5386 51.9121 39.1434 53.116C40.1354 55.0783 40.7814 57.3307 40.9338 59.3844" stroke="white" stroke-linecap="round" stroke-linejoin="round"/>
<path d="M25.2793 57.0753C30.089 55.7252 34.1753 53.2032 36.9697 49.9502" stroke="white" stroke-linecap="round" stroke-linejoin="round"/>
<path d="M31.7266 59.0922C34.7435 57.5639 37.2839 55.5171 39.1444 53.1162" stroke="white" stroke-linecap="round" stroke-linejoin="round"/>
<path d="M78.4586 59.3838H22" stroke="white" stroke-linecap="round" stroke-linejoin="round"/>
<path d="M41.7227 59.3848V42.848C41.7227 42.2038 42.2767 41.6807 42.959 41.6807H57.272C57.9567 41.6807 58.5107 42.2038 58.5107 42.848V59.3848" stroke="white" stroke-linecap="round" stroke-linejoin="round"/>
<path d="M50.2305 41.4516V38.6807" stroke="white" stroke-linecap="round" stroke-linejoin="round"/>
<path d="M50.2287 38.6807C50.6691 38.6807 51.1094 38.6305 51.5376 38.5299C51.8521 38.4568 52.1691 38.3815 52.2054 38.3723C54.2836 37.7989 55.5973 36.0331 55.6941 34.1233C55.7449 33.125 55.4062 32.145 54.7868 31.3364C52.7957 28.7299 51.3175 25.8058 50.4247 22.7059L50.2215 22H50.2433L50.04 22.7059C49.1449 25.8058 47.6666 28.7299 45.6779 31.3364C45.0585 32.1473 44.7198 33.1273 44.7706 34.1233C44.8553 35.7818 45.8569 37.3352 47.4827 38.0891" stroke="white" stroke-linecap="round" stroke-linejoin="round"/>
<path d="M50.1152 44.7568V54.0589" stroke="white" stroke-linecap="round" stroke-linejoin="round"/>
<path d="M47.3633 47.626H52.8722" stroke="white" stroke-linecap="round" stroke-linejoin="round"/>
</svg>
